<?xml version="1.0" encoding="iso-8859-1"?>
<!-- Generator: Adobe Illustrator 19.0.0, SVG Export Plug-In . SVG Version: 6.00 Build 0)  -->
<svg version="1.1" id="Layer_1" xmlns="http://www.w3.org/2000/svg" xmlns:xlink="http://www.w3.org/1999/xlink" x="0px" y="0px"
	 viewBox="0 0 475 475" style="enable-background:new 0 0 475 475;" xml:space="preserve">
<g>
	<path style="fill:#005ECE;" d="M297.5,60c-33.67,0-66.443,9.476-94.776,27.403c-27.546,17.429-49.763,42.048-64.25,71.196
		l35.82,17.803C197.716,129.275,244.926,100,297.5,100c75.818,0,137.5,61.682,137.5,137.5S373.318,375,297.5,375
		c-52.574,0-99.784-29.275-123.205-76.401l-35.82,17.803c14.486,29.147,36.704,53.767,64.25,71.196
		C231.057,405.524,263.83,415,297.5,415c97.874,0,177.5-79.626,177.5-177.5S395.374,60,297.5,60z"/>
	<polygon style="fill:#2488FF;" points="223.358,283.358 251.642,311.642 325.784,237.5 251.642,163.358 223.358,191.642 
		249.216,217.5 0,217.5 0,257.5 249.216,257.5 	"/>
</g>
<g>
</g>
<g>
</g>
<g>
</g>
<g>
</g>
<g>
</g>
<g>
</g>
<g>
</g>
<g>
</g>
<g>
</g>
<g>
</g>
<g>
</g>
<g>
</g>
<g>
</g>
<g>
</g>
<g>
</g>
</svg>
